# xmcd
#
# Track frame offsets:
#	150
#	18264
#	32954
#	50589
#	62638
#	71962
#	88009
#	102084
#	112930
#	130520
#	148956
#	165149
#	182024
#	198035
#	218481
#	234161
#	250620
#	264692
#
# Disc length: 3655 seconds
# Revision: 1
# Processed by: cddbd v1.5.2PL0 Copyright (c) Steve Scherf et al.
# Submitted via: dBpowerAMP V12.0
#
DISCID=ed0e4512
DTITLE=Various Artist - Ultimate... Country, Disc 3
DYEAR=2015
DGENRE=Country
TTITLE0=Lonestar - Amazed
TTITLE1=Rosanne Cash - Seven Year Ache
TTITLE2=Phil Vassar - Just Another Day In Paradise
TTITLE3=Restless Heart - You Can Depend On Me
TTITLE4=Barbara Mandrell - Tinight My Baby's Coming Home
TTITLE5=Ty Herndon - It Must Be Love
TTITLE6=Exile - Woke Up In Love
TTITLE7=Tanya Tucker - Would You Lay With Me (In A Field Of Stone)
TTITLE8=Montgomery Gentry - Roll With Me
TTITLE9=Diamond Rio - how Your Love Makes Me Feel
TTITLE10=Travis Tritt - Honky-Tonk History
TTITLE11=Alabama - Rol On (Eighteen Wheeler)
TTITLE12=Don Williams - I've Been Loved By The Best
TTITLE13=Lari White - Now I Know
TTITLE14=Doug Stone - A Jukebox With A Country Song
TTITLE15=Chris Young - Tomorrow
TTITLE16=Ricky Van Shelton - I'll Leave This World Loving You
TTITLE17=Elvis Presley - Snowbird
EXTD=
EXTT0=
EXTT1=
EXTT2=
EXTT3=
EXTT4=
EXTT5=
EXTT6=
EXTT7=
EXTT8=
EXTT9=
EXTT10=
EXTT11=
EXTT12=
EXTT13=
EXTT14=
EXTT15=
EXTT16=
EXTT17=
PLAYORDER=
